<svg version="1.1" id="Layer_1" xmlns="http://www.w3.org/2000/svg" xmlns:xlink="http://www.w3.org/1999/xlink" x="0px" y="0px"
	 width="100%" viewBox="0 0 496 496" enable-background="new 0 0 496 496" xml:space="preserve">
<path fill="#000000" opacity="1.000000" stroke="none" 
	d="
M205.712494,232.465027 
	C202.970764,234.390564 204.467224,236.486206 204.906677,238.497635 
	C205.347092,240.513321 207.013596,242.343811 205.712387,245.278381 
	C188.647522,236.789627 171.266479,228.794662 163.099945,210.227814 
	C155.950089,193.972412 161.058365,178.838913 171.583572,165.982651 
	C193.609314,139.078827 222.142899,123.034500 256.840576,119.165619 
	C267.027069,118.029808 277.494293,119.335762 287.285858,123.105835 
	C295.175690,126.143684 295.913055,130.045013 289.994781,135.951553 
	C283.498535,142.434891 276.021271,147.545242 266.925903,152.763062 
	C269.198547,145.489639 265.223694,143.534103 260.615265,142.142212 
	C242.151550,136.565582 223.811523,135.909912 206.305817,145.143204 
	C187.600708,155.009109 181.697205,177.354370 192.380524,195.751419 
	C197.637192,204.803589 205.506042,211.129395 214.096710,216.712265 
	C216.575729,218.323318 219.094101,219.873825 222.812164,222.220764 
	C216.633301,225.923264 211.317917,229.108368 205.712494,232.465027 
z"/>
<path fill="#000000" opacity="1.000000" stroke="none" 
	d="
M345.032135,368.970245 
	C351.126617,374.920959 357.161346,380.437103 362.761108,386.364197 
	C370.125214,394.158661 379.060608,396.140930 389.216156,394.569031 
	C390.165283,394.422150 391.116699,393.807220 392.090271,394.497894 
	C392.294678,395.473267 391.742981,396.075562 391.025574,396.550018 
	C384.917114,400.589172 378.929993,404.831726 372.655975,408.595703 
	C363.945984,413.821136 355.402130,413.472015 347.005615,407.356964 
	C338.697235,401.306091 332.107758,393.595459 325.317383,386.048828 
	C314.622192,374.162537 304.122498,362.092926 293.178497,350.440521 
	C285.530670,342.297638 278.832733,332.640289 265.506226,330.927063 
	C278.440887,319.494232 292.293884,313.494324 309.536682,312.636078 
	C306.718994,317.166534 302.106812,317.100189 299.262878,320.528290 
	C313.862885,337.183044 329.679810,352.618530 345.032135,368.970245 
z"/>
<path fill="#000000" opacity="1.000000" stroke="none" 
	d="
M238.160858,226.809540 
	C252.154266,227.338654 265.482941,225.086960 278.901825,224.169632 
	C300.300049,222.706833 324.676147,231.031845 334.432800,253.289001 
	C337.146362,259.479309 338.358765,265.941315 337.940216,272.713654 
	C337.745361,275.866425 336.588440,277.560822 333.039764,277.394073 
	C328.057312,277.159912 323.055298,277.312225 318.062042,277.351257 
	C316.033325,277.367096 314.332825,276.944855 314.090515,274.577057 
	C311.921539,253.384232 296.284332,246.132675 278.956757,240.748703 
	C272.009888,238.590210 264.782654,239.327499 257.639221,239.322403 
	C254.290787,239.320007 253.991241,241.436707 253.940430,243.977005 
	C253.750870,253.454865 253.391083,262.931427 253.361740,272.409332 
	C253.350723,275.967865 252.322189,277.600739 248.516983,277.392334 
	C244.036316,277.146942 239.522171,277.158600 235.040375,277.395782 
	C231.183075,277.599976 229.632141,276.205292 229.749802,272.258606 
	C230.002655,263.776703 229.788239,255.279602 230.104034,246.801346 
	C230.269928,242.347443 228.598541,241.059387 224.262924,241.218704 
	C219.314209,241.400558 214.421707,243.050003 209.203278,241.950424 
	C209.344803,239.811035 211.164062,239.415726 212.438522,238.635269 
	C217.547379,235.506638 222.775421,232.567734 227.819473,229.340012 
	C230.892044,227.373856 234.028488,226.230820 238.160858,226.809540 
z"/>
<path fill="#000000" opacity="1.000000" stroke="none" 
	d="
M263.919373,396.671722 
	C268.278351,396.654694 272.153229,396.833771 276.081390,396.429413 
	C256.825134,408.950714 236.240906,415.512115 213.153183,411.592804 
	C212.847412,410.797852 213.361115,410.162079 213.897858,409.947235 
	C223.608734,406.060547 224.659683,397.455231 225.661316,388.724060 
	C228.263107,366.044250 229.056320,343.281891 228.993912,320.474426 
	C228.973450,313.001129 229.107956,312.873962 236.444092,312.865295 
	C240.441284,312.860535 244.438599,312.913086 248.435669,312.894714 
	C251.131561,312.882294 252.396164,314.114471 252.297012,316.859314 
	C251.762375,331.660065 251.271469,346.462372 250.749802,361.263611 
	C250.597473,365.584900 250.424728,369.905945 250.206497,374.224365 
	C249.834564,381.584595 248.138687,388.619781 243.979340,395.583160 
	C250.945404,397.557892 257.255249,396.251038 263.919373,396.671722 
z"/>
<path fill="#000000" opacity="1.000000" stroke="none" 
	d="
M162.421234,350.766418 
	C157.397690,348.847107 152.658844,347.214081 148.639587,344.135742 
	C144.844376,341.228973 143.243454,336.725647 145.618195,333.181244 
	C151.647263,324.182678 161.192322,319.282440 169.824341,312.840576 
	C169.211426,322.528961 176.059509,325.514313 182.459061,328.586151 
	C192.976303,333.634552 204.218811,335.537537 215.825851,335.211792 
	C219.033676,335.121765 220.235672,336.264648 220.338379,339.500427 
	C220.683456,350.372772 220.509598,350.465118 210.489059,354.050354 
	C194.076065,359.922729 178.404419,356.171509 162.421234,350.766418 
z"/>
<path fill="#000000" opacity="1.000000" stroke="none" 
	d="
M268.598785,247.811859 
	C279.437042,250.622086 291.537659,266.444702 290.962616,277.270630 
	C282.254120,277.270630 273.490204,277.295807 264.726593,277.252563 
	C262.590088,277.242004 261.840210,275.719696 261.895142,273.882507 
	C262.128723,266.067993 262.344543,258.250122 262.787659,250.446014 
	C262.992737,246.833633 266.006744,247.944473 268.598785,247.811859 
z"/>
<path fill="#000000" opacity="1.000000" stroke="none" 
	d="
M284.052551,301.337952 
	C281.677917,298.734619 279.582306,296.398621 277.377411,293.940796 
	C278.568359,291.400879 282.767242,290.688019 281.443115,287.066895 
	C280.811401,285.339355 279.364349,284.571564 276.821198,284.701202 
	C275.977203,290.517090 275.590668,296.384766 276.499298,302.493683 
	C275.244049,303.696625 273.688385,303.392395 271.878937,302.877594 
	C271.320953,296.214050 274.433075,289.640076 271.469574,283.169464 
	C274.812836,281.038361 278.159515,281.354431 281.328888,282.215973 
	C285.256226,283.283508 286.302216,286.773712 284.193573,290.547791 
	C282.522278,293.539124 284.690521,298.012695 288.939056,300.008942 
	C292.955719,301.896271 293.282806,298.248383 294.313232,296.073761 
	C295.735016,293.073212 296.773010,289.893219 298.102783,286.845703 
	C298.866028,285.096436 299.363892,282.942810 302.226379,282.860718 
	C305.822906,288.708618 305.237213,296.325836 309.939026,302.018524 
	C307.451019,303.859772 305.441101,304.048065 304.176117,300.758942 
	C303.291443,298.458679 302.984131,295.736053 299.383362,296.232605 
	C295.474854,296.771637 295.733185,299.914948 295.198822,302.958618 
	C291.499573,302.908478 287.713806,304.485779 284.052551,301.337952 
z"/>
<path fill="#000000" opacity="1.000000" stroke="none" 
	d="
M217.840012,290.733582 
	C215.944870,295.453918 214.372864,299.929474 210.908295,304.024048 
	C207.669983,299.052338 206.927170,294.017639 204.516434,289.152863 
	C201.591461,293.983368 200.704147,299.596252 196.321701,303.835236 
	C192.872559,296.930847 192.116074,289.673828 188.581955,283.523712 
	C190.160828,281.955292 191.804321,281.562500 193.881058,282.231049 
	C193.823318,287.409607 195.715393,292.084747 197.885498,297.616730 
	C200.263397,292.529205 202.872589,288.406677 202.014740,283.216125 
	C203.448837,282.100433 204.970306,281.652740 207.044952,282.193695 
	C208.502182,286.972595 208.965134,292.335022 212.554932,297.360382 
	C214.570938,292.497559 217.542877,288.608673 215.687073,283.381866 
	C217.306290,282.136688 218.973251,281.286743 221.139206,282.578857 
	C220.067459,285.221527 219.021759,287.799927 217.840012,290.733582 
z"/>
<path fill="#000000" opacity="1.000000" stroke="none" 
	d="
M175.818024,292.329163 
	C169.808273,292.641663 168.809845,294.842407 170.827591,302.482574 
	C169.358582,303.588745 167.819122,303.619263 166.007401,302.730042 
	C166.630035,296.242615 167.373718,289.700073 165.693115,283.123932 
	C166.781235,281.442657 168.414032,281.709229 170.057419,281.975555 
	C171.742294,284.303894 168.325714,288.133606 172.095413,289.441589 
	C174.167542,290.160614 176.936813,290.660034 178.810623,289.049225 
	C180.815338,287.325928 179.113037,285.098572 178.534225,283.263214 
	C178.906082,282.188660 179.670685,281.849487 180.525269,281.820831 
	C181.329636,281.793915 182.140640,281.964844 183.099670,282.064362 
	C183.976822,288.864380 182.201279,295.640228 183.830978,302.304840 
	C182.659714,303.701508 181.229614,303.391998 179.671158,302.868439 
	C178.802094,300.950195 179.798325,298.994843 179.708862,297.047729 
	C179.595947,294.589996 179.744110,292.181335 175.818024,292.329163 
z"/>
<path fill="#000000" opacity="1.000000" stroke="none" 
	d="
M330.898926,301.222473 
	C328.829193,303.944427 327.976135,301.737823 326.947479,300.658386 
	C324.136566,297.708740 321.374481,294.712585 318.105438,291.212830 
	C316.062439,302.715271 316.062439,302.715271 313.848572,302.947052 
	C315.868225,296.039948 313.170013,288.811218 316.167572,281.127777 
	C319.566223,287.404053 323.371948,292.249420 328.897186,296.264008 
	C330.137512,291.504211 329.926361,287.225159 328.728760,282.780975 
	C330.884705,281.483124 332.543640,281.056152 332.392700,284.520050 
	C332.154327,289.990234 332.359283,295.498566 330.898926,301.222473 
z"/>
<path fill="#000000" opacity="1.000000" stroke="none" 
	d="
M344.181519,284.585632 
	C346.791931,281.573883 347.628601,282.935669 348.625488,285.615112 
	C350.631622,291.006989 350.919464,297.021240 354.644409,302.038422 
	C351.972443,304.187195 350.296478,303.523041 349.051056,300.517731 
	C348.258209,298.604401 348.759644,295.556396 344.991302,296.076141 
	C341.937469,296.497345 340.613586,298.065887 340.521118,300.985016 
	C340.423523,304.065247 338.509399,303.225586 336.373596,302.868683 
	C338.984802,296.696136 341.484528,290.787048 344.181519,284.585632 
z"/>
<path fill="#000000" opacity="1.000000" stroke="none" 
	d="
M229.332809,281.949951 
	C232.141663,282.073608 234.614487,281.394867 237.230118,282.443512 
	C235.720825,286.322144 228.378952,281.884521 229.447296,288.388794 
	C230.037354,291.981201 233.774246,289.819183 235.602432,291.677582 
	C233.936417,294.273285 228.062820,292.648071 229.343811,298.184540 
	C230.252533,302.111969 233.822754,300.059753 236.019943,301.894958 
	C232.895752,304.523560 229.459991,303.005646 225.428482,303.526947 
	C225.428482,296.951447 225.443222,290.725555 225.421280,284.499847 
	C225.412430,281.989197 227.391556,282.319611 229.332809,281.949951 
z"/>
<path fill="#000000" opacity="1.000000" stroke="none" 
	d="
M153.401123,294.496094 
	C149.615234,292.562805 147.082565,290.335449 149.650192,286.138336 
	C151.896713,282.466125 157.228668,281.184875 160.509537,283.386200 
	C159.771301,285.772949 158.088501,284.907776 156.459885,284.679108 
	C154.643875,284.424164 153.115524,285.201080 152.517090,286.993683 
	C151.947540,288.699860 153.103256,289.802032 154.391373,290.679016 
	C155.074341,291.143982 155.851837,291.468018 156.550262,291.912781 
	C158.636261,293.241302 161.425507,294.430481 160.873230,297.373352 
	C160.233978,300.779694 157.185226,302.276520 154.188461,303.475311 
	C151.473404,304.561432 149.083954,304.354156 147.297714,301.829590 
	C148.139465,299.270538 149.712616,299.926544 151.376572,300.404877 
	C153.520096,301.021057 156.027390,301.394562 156.993835,298.877289 
	C157.971237,296.331543 155.277496,295.744293 153.401123,294.496094 
z"/>
<path fill="#000000" opacity="1.000000" stroke="none" 
	d="
M246.827332,290.252686 
	C247.838440,284.597260 243.220261,285.489044 240.499252,284.332977 
	C243.075699,281.444641 253.427444,280.737213 258.230713,282.929382 
	C258.075562,283.905823 257.379669,284.474823 256.517456,284.370636 
	C250.940155,283.696716 250.143738,287.078125 250.319748,291.441254 
	C250.464264,295.023468 249.816940,298.662811 251.358093,301.972382 
	C249.850739,303.747223 248.340179,303.315979 246.826035,302.826050 
	C246.826035,298.609131 246.826035,294.656708 246.827332,290.252686 
z"/>
<path fill="#000000" opacity="1.000000" stroke="none" 
	d="
M260.833038,319.468994 
	C261.510437,312.528046 263.770660,311.474701 273.035858,313.660217 
	C270.389526,317.159119 266.580505,318.847809 263.280151,321.132751 
	C262.077179,321.965637 261.055634,321.450348 260.833038,319.468994 
z"/>
</svg>